
Genre:Action | Adventure | Drama
Language:English
 
http://www.imdb.com/title/tt0881320/

Source:1080p.DTS.x264-CHD


Format : MPEG-4
Format profile : Base Media
Codec ID : isom
File size : 2.58 GiB
Duration : 1h 48mn
Overall bit rate : 3 393 Kbps


Video
Format profile : High@L4.1
Format settings, CABAC : Yes
Format settings, ReFrames : 3 frames
Codec ID : avc1
Codec ID/Info : Advanced Video Coding
Duration : 1h 48mn
Bit rate mode : Variable
Bit rate : 3 000 Kbps
Maximum bit rate : 11.0 Mbps
Width : 1 280 pixels
Height : 720 pixels
Display aspect ratio : 16:9
Frame rate mode : Constant
Frame rate : 23.976 fps
Color space : YUV
Chroma subsampling : 4:2:0
Bit depth : 8 bits
Scan type : Progressive
Bits/(Pixel*Frame) : 0.136
Stream size : 2.24 GiB (87%)
Writing library : x264


Audio
ID : 2
Format : AAC
Format/Info : Advanced Audio Codec
Format version : Version 4
Format profile : LC
Format settings, SBR : No
Codec ID : 40
Duration : 1h 48mn
Bit rate mode : Variable
Bit rate : 447 Kbps
Maximum bit rate : 531 Kbps
Channel(s) : 6 channels
Channel positions : Front: L C R, Side: L R, LFE
Sampling rate : 48.0 KHz
Stream size : 348 MiB (13%)


Plot:
An underwater cave diving team experiences a life-threatening crisis during an expedition to the unexplored and least accessible cave system in the world.
 
http://www.pix2links.com/images/41266447998781029921.png
 
http://www.pix2links.com/images/59852515131886703466.png
 
http://www.pix2links.com/images/71501058596706805444.png
 
http://www.pix2links.com/images/64184337595669013541.png
 
http://www.pix2links.com/images/54023555969188258960.png

